<?xml version="1.0" encoding="UTF-8" standalone="no"?>
<svg
   xmlns:dc="http://purl.org/dc/elements/1.1/"
   xmlns:cc="http://creativecommons.org/ns#"
   xmlns:rdf="http://www.w3.org/1999/02/22-rdf-syntax-ns#"
   xmlns:svg="http://www.w3.org/2000/svg"
   xmlns="http://www.w3.org/2000/svg"
   viewBox="0 0 143.74356 238.29346"
   height="238.29346"
   width="143.74356"
   xml:space="preserve"
   id="svg3713"
   version="1.1"><metadata
     id="metadata3719"><rdf:RDF><cc:Work
         rdf:about=""><dc:format>image/svg+xml</dc:format><dc:type
           rdf:resource="http://purl.org/dc/dcmitype/StillImage" /><dc:title></dc:title></cc:Work></rdf:RDF></metadata><defs
     id="defs3717"><clipPath
       id="clipPath3731"
       clipPathUnits="userSpaceOnUse"><path
         id="path3729"
         d="M 0,595.28 H 841.89 V 0 H 0 Z" /></clipPath></defs><g
     transform="matrix(1.3333333,0,0,-1.3333333,-491.74611,567.31439)"
     id="g3721"><g
       id="g3725"><g
         clip-path="url(#clipPath3731)"
         id="g3727"><g
           transform="translate(422.1289,247.3057)"
           id="g3765"><path
             id="path3767"
             style="fill:#231815;fill-opacity:1;fill-rule:nonzero;stroke:none"
             d="M 0,0 0.392,-0.54 C 0.262,-0.356 0.131,-0.177 0,0" /></g><g
           transform="translate(422.3223,247.3125)"
           id="g3769"><path
             id="path3771"
             style="fill:#231815;fill-opacity:1;fill-rule:nonzero;stroke:none"
             d="M 0,0 V 0 C 0.001,0 0.003,-0.007 0.004,-0.007 Z" /></g><g
           transform="translate(392.3364,277.7969)"
           id="g3773"><path
             id="path3775"
             style="fill:#000000;fill-opacity:1;fill-rule:evenodd;stroke:none"
             d="m 0,0 c 0,0 6.628,1.577 8.947,8.35 0,0 2.129,6.529 9.821,11.705 0,0 5.031,2.902 11.608,1.353 v 11.026 c 0,0 -10.255,4.646 -16.834,-4.64 0,0 -1.213,-1.775 -3.922,-4.398 0,0 -5.945,-4.763 -6.138,-10.695 C 3.482,12.701 4.063,3.934 0,0" /></g><g
           transform="translate(458.417,284.8135)"
           id="g3777"><path
             id="path3779"
             style="fill:#000000;fill-opacity:1;fill-rule:evenodd;stroke:none"
             d="m 0,0 c 0,0 -6.807,0.186 -10.465,6.34 0,0 -3.422,5.956 -12.008,9.445 0,0 -5.519,1.815 -11.642,-1.049 l -2.258,10.795 c 0,0 9.085,6.644 17.427,-1.099 0,0 1.551,-1.485 4.741,-3.499 0,0 6.792,-3.447 8.197,-9.212 0,0 1.228,-8.698 6.008,-11.721" /></g><g
           transform="translate(438.3604,390.6787)"
           id="g3781"><path
             id="path3783"
             style="fill:#000000;fill-opacity:1;fill-rule:nonzero;stroke:none"
             d="M 0,0 V 0 C -0.343,-0.226 -0.7,-0.449 -1.063,-0.671 -0.362,-0.271 0,0 0,0" /></g><g
           transform="translate(445.3525,412.4448)"
           id="g3785"><path
             id="path3787"
             style="fill:#000000;fill-opacity:1;fill-rule:nonzero;stroke:none"
             d="m 0,0 c -2.362,4.137 -4.399,8.297 -5.23,10.033 l -1.207,3.008 c -0.518,-0.518 -8.48,-2.064 -8.48,-2.064 -4.629,-1.114 -10.593,-2.03 -14.474,-2.563 -1.262,-0.127 -2.515,-0.291 -3.764,-0.488 -0.149,-0.02 -0.228,-0.027 -0.228,-0.027 l 0.008,-0.009 c -7.1,-1.141 -13.936,-3.371 -20.095,-6.658 -17.524,-9.348 -23.221,-31.629 -23.07,-42.933 0.282,-1.306 0.098,-2.708 0.22,-4.057 0.891,-10.016 1.807,-20.036 2.716,-30.052 1.901,2.671 2.385,5.316 3.151,7.878 3.416,11.424 -0.219,25.757 4.313,36.726 6.775,16.397 15.751,14.256 29.3,8.865 0.552,-0.246 1.099,-0.475 1.639,-0.693 2.038,-0.81 3.987,-1.413 5.842,-1.844 0.794,-0.183 1.571,-0.336 2.329,-0.462 3.721,-0.613 7.01,-0.541 9.79,-0.139 0.958,0.141 1.856,0.319 2.693,0.521 3.069,0.749 5.28,1.828 6.491,2.521 0.364,0.222 0.721,0.445 1.064,0.671 5.962,3.902 9.166,8.202 9.524,12.809 C 2.795,-5.622 1.542,-2.501 0,0" /></g><g
           transform="translate(434.876,355.812)"
           id="g3789"><path
             id="path3791"
             style="fill:#000000;fill-opacity:1;fill-rule:nonzero;stroke:none"
             d="m 0,0 -0.002,-0.004 c 1.39,1.597 3.438,3.915 3.438,3.915 V 3.902 C 12.398,14.04 17.211,8.986 17.211,8.986 L 17.207,8.985 C 17.867,8.495 18.49,7.864 19.068,7.089 20.661,4.962 21.795,2.495 23.136,0.179 16.929,4.118 9.852,3.662 3.92,-0.58 0.195,-3.244 -1.406,-4.709 -5.448,-6.748 -3.546,-4.155 -1.709,-1.916 0,0" /></g><g
           transform="translate(416.0967,348.3901)"
           id="g3793"><path
             id="path3795"
             style="fill:#000000;fill-opacity:1;fill-rule:nonzero;stroke:none"
             d="M 0,0 C -0.975,-0.513 -1.88,-0.159 -2.306,0.072 -2.331,0.089 -2.661,0.315 -3.289,0.764 V 0.762 c -1.405,1.018 -2.754,1.933 -4.025,2.75 l 0.006,-0.006 c -1.768,1.17 -4.365,2.853 -4.365,2.853 l 0.002,-0.005 C -23.022,13.71 -26.979,4.335 -26.979,4.335 h 0.005 c -0.503,-0.649 -0.936,-1.422 -1.284,-2.325 -0.961,-2.476 -0.721,-1.94 -1.391,-4.53 4.923,5.458 11.862,6.919 18.713,4.422 3.508,-1.276 5.446,-2.165 8.444,-2.924 v -0.002 l 0.129,-0.034 h 0.002 l 0.006,-10e-4 c 0,0 0.5,-0.065 1.011,0.054 0.004,-0.004 0.004,-0.004 0.008,-0.005 0.096,0.024 0.194,0.057 0.296,0.096 0.01,0.004 0.018,0.005 0.026,0.012 C -0.642,-0.75 -0.264,-0.478 0,0" /></g><g
           transform="translate(413.7358,347.3311)"
           id="g3797"><path
             id="path3799"
             style="fill:#000000;fill-opacity:1;fill-rule:nonzero;stroke:none"
             d="M 0,0 H 0.005 C 0.004,0 0.001,0 0,0.001 Z" /></g><g
           transform="translate(405.5586,290.4346)"
           id="g3801"><path
             id="path3803"
             style="fill:#000000;fill-opacity:1;fill-rule:evenodd;stroke:none"
             d="M 0,0 C 0,0 32.051,-1.267 34.674,6.587 34.674,6.587 40.241,-5.031 0,0" /></g><g
           transform="translate(451.2363,271.8311)"
           id="g3805"><path
             id="path3807"
             style="fill:#000000;fill-opacity:1;fill-rule:nonzero;stroke:none"
             d="m 0,0 c 1.317,1.779 2.68,3.259 2.68,3.259 0,0 -7.461,1.547 -10.273,10.364 0,0 3.101,-10.659 -10.467,-5.23 0,0 -1.32,0.505 -2.634,1.271 -0.984,0.625 -1.744,1.316 -2.213,1.791 -0.127,0.149 -0.306,0.354 -0.53,0.572 -0.316,0.31 -0.716,0.652 -1.178,0.919 -2.904,1.778 -5.392,-0.176 -5.392,-0.176 h 0.002 c -0.345,-0.237 -0.65,-0.499 -0.898,-0.743 -0.222,-0.218 -0.403,-0.423 -0.526,-0.572 -0.468,-0.475 -1.232,-1.166 -2.215,-1.791 -1.313,-0.766 -2.635,-1.271 -2.635,-1.271 -13.567,-5.429 -10.466,5.23 -10.466,5.23 -2.812,-8.817 -10.273,-10.364 -10.273,-10.364 0,0 1.335,-1.451 2.638,-3.209 l 0.004,-0.008 c 0.136,-0.183 0.271,-0.365 0.404,-0.555 l 2.543,-3.502 c 0.728,-0.855 1.52,-1.762 2.398,-2.736 0.512,-0.468 1.077,-0.948 1.691,-1.419 1.671,-1.142 5.027,-3.148 9.09,-4.141 0.608,-0.132 1.181,-0.239 1.713,-0.329 0.271,-0.032 2.297,-0.264 4.732,-0.384 h 4.638 4.633 c 2.434,0.12 4.459,0.352 4.732,0.384 0.531,0.09 1.104,0.197 1.714,0.329 4.063,0.993 7.418,2.999 9.09,4.141 0.615,0.471 1.179,0.951 1.691,1.419 0.874,0.971 1.667,1.877 2.395,2.734" /></g><g
           transform="translate(431.5264,331.3228)"
           id="g3809"><path
             id="path3811"
             style="fill:#000000;fill-opacity:1;fill-rule:nonzero;stroke:none"
             d="m 0,0 -0.27,1.808 c -1.363,5.675 8.008,6.61 8.008,6.61 z m -46.026,0 -0.268,1.808 c -1.365,5.675 8.006,6.61 8.006,6.61 z m 81.17,4.203 V 4.209 H 35.06 34.165 31.408 C 31.114,6.144 29.743,7.559 27.963,8.622 23.654,11.193 18.801,11.198 14.18,11.501 9.43,11.259 4.684,11.336 0.725,8.739 -1.374,7.363 -2.82,7.312 -4.938,8.43 -8.06,9.729 -10.507,9.135 -11.61,8.718 V 8.716 c -0.217,-0.091 -0.437,-0.172 -0.654,-0.286 -2.117,-1.118 -3.562,-1.067 -5.661,0.309 -3.961,2.597 -8.706,2.52 -13.455,2.762 -4.623,-0.303 -9.477,-0.308 -13.781,-2.879 -1.782,-1.063 -3.153,-2.478 -3.448,-4.413 h -2.729 -0.895 -0.085 V 4.203 c -0.981,-0.056 -1.766,-0.968 -1.766,-2.097 0,-1.129 0.785,-2.043 1.766,-2.095 V 0 h 0.085 0.895 3.126 c 0.404,-2.532 0.867,-5.062 1.373,-7.578 0.791,-3.921 2.807,-6.997 6.651,-8.532 5.886,-2.352 11.832,-2.374 17.696,0.018 3.331,1.359 5.584,3.807 6.317,7.454 0.07,0.344 0.143,0.684 0.217,1.027 h -10e-4 l 1.667,9.253 c 0,0 10e-4,-0.01 10e-4,-0.012 0.399,2.523 2.141,3.492 4.187,3.738 0.729,0.124 3.005,0 3.005,0 2.05,-0.246 3.791,-1.215 4.189,-3.738 0,0.002 0.002,0.012 0.002,0.012 l 1.667,-9.253 h -0.003 c 0.075,-0.343 0.15,-0.683 0.219,-1.027 0.732,-3.647 2.985,-6.095 6.316,-7.454 5.865,-2.392 11.81,-2.37 17.696,-0.018 3.843,1.535 5.861,4.611 6.651,8.532 0.506,2.516 0.968,5.046 1.374,7.578 h 3.153 0.895 0.084 v 0.011 c 0.984,0.052 1.767,0.966 1.767,2.095 0,1.129 -0.783,2.041 -1.767,2.097" /></g><g
           transform="translate(453.543,410.1948)"
           id="g3813"><path
             id="path3815"
             style="fill:#000000;fill-opacity:1;fill-rule:nonzero;stroke:none"
             d="m 0,0 c -1.927,1.027 -3.924,1.948 -5.969,2.77 -0.779,0.429 -1.507,0.844 -2.189,1.244 0,0 9.947,-9.89 0.873,-21.485 v -0.004 c 9.245,2.031 14.568,1.555 19.956,-11.481 4.531,-10.969 0.895,-25.302 4.308,-36.726 0.767,-2.562 1.253,-5.207 3.155,-7.878 0.91,10.016 1.822,20.036 2.716,30.052 0.12,1.349 -0.061,2.751 0.219,4.057 C 23.275,-24.051 17.468,-9.321 0,0" /></g></g></g></g></svg>