<?xml version="1.0" encoding="UTF-8" standalone="no"?>
<!-- Created with Inkscape (http://www.inkscape.org/) -->

<svg
   xmlns:dc="http://purl.org/dc/elements/1.1/"
   xmlns:cc="http://creativecommons.org/ns#"
   xmlns:rdf="http://www.w3.org/1999/02/22-rdf-syntax-ns#"
   xmlns:svg="http://www.w3.org/2000/svg"
   xmlns="http://www.w3.org/2000/svg"
   xmlns:sodipodi="http://sodipodi.sourceforge.net/DTD/sodipodi-0.dtd"
   xmlns:inkscape="http://www.inkscape.org/namespaces/inkscape"
   version="1.1"
   id="svg37"
   xml:space="preserve"
   width="354.57413"
   height="74.413734"
   viewBox="0 0 354.57412 74.413735"
   sodipodi:docname="logo_text_only_all-white.svg"
   inkscape:version="0.92.4 (5da689c313, 2019-01-14)"><metadata
     id="metadata43"><rdf:RDF><cc:Work
         rdf:about=""><dc:format>image/svg+xml</dc:format><dc:type
           rdf:resource="http://purl.org/dc/dcmitype/StillImage" /><dc:title></dc:title></cc:Work></rdf:RDF></metadata><defs
     id="defs41"><clipPath
       clipPathUnits="userSpaceOnUse"
       id="clipPath55"><path
         d="M 0,595.28 H 841.89 V 0 H 0 Z"
         id="path53"
         inkscape:connector-curvature="0" /></clipPath></defs><sodipodi:namedview
     pagecolor="#ffffff"
     bordercolor="#666666"
     borderopacity="1"
     objecttolerance="10"
     gridtolerance="10"
     guidetolerance="10"
     inkscape:pageopacity="0"
     inkscape:pageshadow="2"
     inkscape:window-width="1920"
     inkscape:window-height="1017"
     id="namedview39"
     showgrid="false"
     inkscape:zoom="1.1893563"
     inkscape:cx="161.06006"
     inkscape:cy="146.82091"
     inkscape:window-x="-8"
     inkscape:window-y="-8"
     inkscape:window-maximized="1"
     inkscape:current-layer="g45" /><g
     id="g45"
     inkscape:groupmode="layer"
     inkscape:label="2017071814048"
     transform="matrix(1.3333333,0,0,-1.3333333,-386.07199,294.28973)"><path
       d="m 289.554,219.868 h 9.468 v -54.961 h -9.468 z"
       style="fill:#ffffff;fill-opacity:1;fill-rule:nonzero;stroke:none"
       id="path47"
       inkscape:connector-curvature="0" /><g
       id="g49"><g
         transform="translate(308.5112,215.1748)"
         id="g57"
         style="fill:#ffffff"><path
           inkscape:connector-curvature="0"
           id="path59"
           style="fill:#ffffff;fill-opacity:1;fill-rule:nonzero;stroke:none"
           d="M 0,0 C 0,-1.337 -0.384,-2.472 -1.156,-3.41 -1.925,-4.346 -2.99,-4.9 -4.35,-5.082 v 2.004 c 0.846,0.126 1.411,0.486 1.694,1.078 0.282,0.587 0.423,1.254 0.423,2 H -4.35 V 4.693 H 0 Z" /></g><g
         transform="translate(312.4365,200.2803)"
         id="g61"
         style="fill:#ffffff"><path
           inkscape:connector-curvature="0"
           id="path63"
           style="fill:#ffffff;fill-opacity:1;fill-rule:nonzero;stroke:none"
           d="m 0,0 v 19.9 h 4.081 v -2.77 h 0.153 c 0.641,0.973 1.411,1.769 2.309,2.386 0.898,0.615 2.129,0.921 3.696,0.921 1.205,0 2.321,-0.267 3.348,-0.805 1.026,-0.54 1.757,-1.375 2.193,-2.502 0.745,1.023 1.604,1.832 2.578,2.423 0.976,0.592 2.169,0.884 3.58,0.884 2.054,0 3.657,-0.505 4.811,-1.516 1.155,-1.015 1.731,-2.743 1.731,-5.18 V 0 h -4.308 v 11.624 c 0,1.592 -0.173,2.882 -0.52,3.867 -0.347,0.99 -1.368,1.483 -3.061,1.483 -1.462,0 -2.52,-0.467 -3.175,-1.403 -0.654,-0.938 -0.981,-2.238 -0.981,-3.91 V 0 h -4.35 v 12.781 c 0,1.359 -0.245,2.398 -0.731,3.115 -0.488,0.719 -1.399,1.078 -2.731,1.078 -1.104,0 -2.094,-0.442 -2.965,-1.327 C 4.784,14.761 4.349,13.481 4.349,11.816 V 0 Z" /></g><g
         transform="translate(355.5259,212.0176)"
         id="g65"><path
           inkscape:connector-curvature="0"
           id="path67"
           style="fill:#ffffff;fill-opacity:1;fill-rule:nonzero;stroke:none"
           d="m 0,0 v -39.26 h 9.314 c 7.491,0 12.38,1.899 14.665,5.698 2.283,3.795 3.425,8.44 3.425,13.934 0,5.489 -1.142,10.131 -3.425,13.934 C 21.694,-1.899 16.805,0 9.314,0 Z M -9.469,-47.11 V 7.851 h 22.478 c 8.365,0 14.434,-2.68 18.205,-8.044 3.772,-5.362 5.657,-11.841 5.657,-19.435 0,-7.598 -1.885,-14.076 -5.657,-19.436 -3.771,-5.367 -9.84,-8.046 -18.205,-8.046 z" /></g><g
         transform="translate(397.5361,164.9072)"
         id="g69"><path
           inkscape:connector-curvature="0"
           id="path71"
           style="fill:#ffffff;fill-opacity:1;fill-rule:nonzero;stroke:none"
           d="M 0,0 V 54.961 H 38.951 V 46.649 H 9.47 V 32.253 h 29.485 v -7.85 H 9.47 V 8.314 H 39.567 V 0 Z" /></g><g
         transform="translate(467.3418,210.3994)"
         id="g73"><path
           inkscape:connector-curvature="0"
           id="path75"
           style="fill:#ffffff;fill-opacity:1;fill-rule:nonzero;stroke:none"
           d="M 0,0 -8.237,-23.629 H 8.313 L 0.23,0 H 0.153 Z M -25.712,-45.492 -4.927,9.469 H 5.156 L 26.095,-45.492 H 15.933 l -5.08,14.55 h -21.707 l -5.082,-14.55 z" /></g><g
         transform="translate(498.5752,164.9072)"
         id="g77"><path
           inkscape:connector-curvature="0"
           id="path79"
           style="fill:#ffffff;fill-opacity:1;fill-rule:nonzero;stroke:none"
           d="M 0,0 V 54.961 H 9.469 V 8.314 H 37.026 V 0 Z" /></g><g
         transform="translate(531.3916,216.4033)"
         id="g81"
         style="fill:#ffffff"><path
           inkscape:connector-curvature="0"
           id="path83"
           style="fill:#ffffff;fill-opacity:1;fill-rule:nonzero;stroke:none"
           d="m 0,0 c -1.489,0 -2.706,-0.508 -3.656,-1.516 -0.949,-1.018 -1.45,-2.269 -1.501,-3.755 H 4.964 C 4.888,-3.886 4.407,-2.663 3.521,-1.596 2.636,-0.529 1.463,0 0,0 m 0,3.465 c 3.104,0 5.517,-1.194 7.236,-3.578 1.718,-2.387 2.4,-5.07 2.041,-8.046 H -5.157 c 0,-1.565 0.429,-2.936 1.288,-4.117 0.859,-1.179 2.188,-1.771 3.984,-1.771 1.282,0 2.312,0.276 3.079,0.827 0.771,0.552 1.348,1.379 1.731,2.487 h 4.081 c -0.462,-2.182 -1.52,-3.86 -3.176,-5.026 -1.653,-1.166 -3.558,-1.752 -5.715,-1.752 -3.081,0 -5.446,0.984 -7.1,2.947 -1.657,1.961 -2.484,4.467 -2.484,7.525 0,2.821 0.853,5.276 2.56,7.368 1.707,2.089 4.01,3.136 6.909,3.136" /></g><g
         transform="translate(543.9766,199.4297)"
         id="g85"
         style="fill:#ffffff"><path
           inkscape:connector-curvature="0"
           id="path87"
           style="fill:#ffffff;fill-opacity:1;fill-rule:nonzero;stroke:none"
           d="m 0,0 v 19.9 h 4.042 v -3.848 h 0.076 c 0.282,1.052 0.982,2.046 2.1,2.983 1.114,0.937 2.341,1.403 3.674,1.403 0.488,0 0.834,-0.012 1.038,-0.037 0.208,-0.026 0.397,-0.051 0.578,-0.076 v -4.236 c -0.307,0.052 -0.623,0.099 -0.943,0.137 -0.321,0.037 -0.622,0.056 -0.903,0.056 -1.49,0 -2.747,-0.585 -3.772,-1.751 C 4.861,13.362 4.349,11.678 4.349,9.472 V 0 Z" /></g><g
         transform="translate(422.1289,247.3057)"
         id="g89"><path
           inkscape:connector-curvature="0"
           id="path91"
           style="fill:#231815;fill-opacity:1;fill-rule:nonzero;stroke:none"
           d="M 0,0 0.392,-0.54 C 0.262,-0.356 0.131,-0.177 0,0" /></g><g
         transform="translate(422.3223,247.3125)"
         id="g93"><path
           inkscape:connector-curvature="0"
           id="path95"
           style="fill:#231815;fill-opacity:1;fill-rule:nonzero;stroke:none"
           d="M 0,0 V 0 C 0.001,0 0.003,-0.007 0.004,-0.007 Z" /></g></g></g></svg>